<svg xmlns="http://www.w3.org/2000/svg" viewBox="0 0 200 200" width="200" height="200">
  <!-- Shield Background -->
  <path d="M100 10 L170 40 L170 120 Q170 160 100 190 Q30 160 30 120 L30 40 Z" fill="#1a1a1a" stroke="#FFD700" stroke-width="3"/>
  
  <!-- Bulldog Head -->
  <g transform="translate(100, 100)">
    <!-- Main head shape -->
    <ellipse cx="0" cy="-10" rx="45" ry="40" fill="#FFD700"/>
    
    <!-- Ears -->
    <ellipse cx="-35" cy="-35" rx="12" ry="18" fill="#FFD700"/>
    <ellipse cx="35" cy="-35" rx="12" ry="18" fill="#FFD700"/>
    
    <!-- Inner ears -->
    <ellipse cx="-35" cy="-35" rx="6" ry="10" fill="#1a1a1a"/>
    <ellipse cx="35" cy="-35" rx="6" ry="10" fill="#1a1a1a"/>
    
    <!-- Eyes -->
    <ellipse cx="-18" cy="-20" rx="8" ry="12" fill="#1a1a1a"/>
    <ellipse cx="18" cy="-20" rx="8" ry="12" fill="#1a1a1a"/>
    <ellipse cx="-18" cy="-22" rx="3" ry="4" fill="white"/>
    <ellipse cx="18" cy="-22" rx="3" ry="4" fill="white"/>
    
    <!-- Eyebrows -->
    <path d="M -28 -32 Q -18 -28 -8 -32" stroke="#1a1a1a" stroke-width="3" fill="none"/>
    <path d="M 8 -32 Q 18 -28 28 -32" stroke="#1a1a1a" stroke-width="3" fill="none"/>
    
    <!-- Snout -->
    <ellipse cx="0" cy="5" rx="20" ry="15" fill="#FFD700"/>
    
    <!-- Nose -->
    <ellipse cx="0" cy="-2" rx="6" ry="4" fill="#1a1a1a"/>
    
    <!-- Mouth -->
    <path d="M -15 15 Q 0 25 15 15" stroke="#1a1a1a" stroke-width="3" fill="none"/>
    
    <!-- Fangs -->
    <polygon points="-8,12 -5,20 -11,20" fill="white"/>
    <polygon points="8,12 11,20 5,20" fill="white"/>
    
    <!-- Wrinkles -->
    <path d="M -25 -5 Q -15 0 -5 -5" stroke="#1a1a1a" stroke-width="2" fill="none"/>
    <path d="M 5 -5 Q 15 0 25 -5" stroke="#1a1a1a" stroke-width="2" fill="none"/>
  </g>
</svg>
